<svg width="30" height="31" viewBox="0 0 30 31" fill="none" xmlns="http://www.w3.org/2000/svg">
<path id="Vector" d="M15 30.5C16.1366 30.5 17.2267 30.1049 18.0305 29.4017C18.8342 28.6985 19.2857 27.7447 19.2857 26.7502H10.7143C10.7143 27.7447 11.1658 28.6985 11.9695 29.4017C12.7733 30.1049 13.8634 30.5 15 30.5ZM15 4.09769L13.2921 4.39955C11.3549 4.74491 9.61356 5.6653 8.36283 7.00495C7.11209 8.3446 6.42878 10.0212 6.42857 11.751C6.42857 12.9285 6.14143 15.8702 5.445 18.7669C5.10214 20.2049 4.63929 21.703 4.02429 23.0004H25.9757C25.3607 21.703 24.9 20.2068 24.555 18.7669C23.8586 15.8702 23.5714 12.9285 23.5714 11.751C23.5707 10.0215 22.8872 8.34536 21.6365 7.0061C20.3858 5.66684 18.6447 4.74672 16.7079 4.40143L15 4.09769ZM28.3286 23.0004C28.8064 23.8385 29.3593 24.5022 30 24.8753H0C0.640714 24.5022 1.19357 23.8385 1.67143 23.0004C3.6 19.6256 4.28571 13.4009 4.28571 11.751C4.28571 7.21377 7.97143 3.42648 12.8679 2.56215C12.8379 2.30146 12.8708 2.03817 12.9644 1.78927C13.0579 1.54037 13.21 1.31139 13.4109 1.11709C13.6118 0.922792 13.857 0.767491 14.1307 0.661203C14.4044 0.554915 14.7005 0.5 15 0.5C15.2995 0.5 15.5956 0.554915 15.8693 0.661203C16.143 0.767491 16.3882 0.922792 16.5891 1.11709C16.79 1.31139 16.9421 1.54037 17.0356 1.78927C17.1292 2.03817 17.1621 2.30146 17.1321 2.56215C19.5542 2.99319 21.7315 4.14337 23.2955 5.81791C24.8595 7.49246 25.714 9.58847 25.7143 11.751C25.7143 13.4009 26.4 19.6256 28.3286 23.0004Z" fill="black"/>
</svg>
